<svg width="512" height="512" viewBox="0 0 512 512" fill="none" xmlns="http://www.w3.org/2000/svg">
<g clip-path="url(#clip0_373_2242)">
<path d="M256 36C143.418 36 51.2932 130.011 44.03 248.893C43.527 257.1 50.0112 264.044 58.231 264.044H453.78C461.999 264.044 468.479 257.1 467.981 248.893C460.708 130.011 368.583 36 256 36ZM198.713 205.123C189.729 205.123 182.944 196.882 184.763 188.083C192.012 153.018 221.154 126.795 256 126.795C290.847 126.795 319.989 153.018 327.237 188.083C329.057 196.887 322.272 205.123 313.288 205.123H198.713Z" fill="#BD1550"/>
<path d="M383.588 317.525C376.162 317.525 369.194 321.253 365.18 327.502C342.71 362.498 302.227 385.856 256 385.856C209.773 385.856 169.29 362.498 146.82 327.502C142.806 321.253 135.843 317.525 128.412 317.525H78.3685C62.7474 317.525 52.0473 333.405 58.0433 347.831C89.2313 422.894 166.085 476 255.995 476C345.905 476 422.759 422.894 453.947 347.831C459.943 333.401 449.243 317.525 433.622 317.525H383.578H383.588Z" fill="#BD1550"/>
</g>
<defs>
<clipPath id="clip0_373_2242">
<rect width="424" height="440" fill="white" transform="translate(44 36)"/>
</clipPath>
</defs>
</svg>
