<svg width="200" height="80" viewBox="0 0 200 80" fill="none" xmlns="http://www.w3.org/2000/svg">
<g clip-path="url(#clip0_365_2239)">
<path d="M38.5002 9C22.8342 9 10.015 22.0333 9.0043 38.5147C8.93431 39.6525 9.83659 40.6152 10.9804 40.6152H66.0214C67.1651 40.6152 68.0667 39.6525 67.9974 38.5147C66.9854 22.0333 54.1662 9 38.5002 9ZM30.5286 32.4466C29.2784 32.4466 28.3343 31.3041 28.5875 30.0843C29.5961 25.223 33.6512 21.5875 38.5002 21.5875C43.3492 21.5875 47.4043 25.223 48.4129 30.0843C48.6661 31.3048 47.7219 32.4466 46.4718 32.4466H30.5286Z" fill="#231B53"/>
<path d="M56.2538 48.0298C55.2205 48.0298 54.2509 48.5467 53.6924 49.413C50.5657 54.2648 44.9325 57.5029 38.4999 57.5029C32.0673 57.5029 26.4341 54.2648 23.3073 49.413C22.7488 48.5467 21.78 48.0298 20.7459 48.0298H13.7823C11.6086 48.0298 10.1196 50.2314 10.954 52.2313C15.2938 62.6378 25.9881 70.0002 38.4992 70.0002C51.0103 70.0002 61.7045 62.6378 66.0444 52.2313C66.8787 50.2307 65.3898 48.0298 63.2161 48.0298H56.2524H56.2538Z" fill="#BD1550"/>
</g>
<path d="M80.132 50C79.754 50 79.475 49.919 79.295 49.757C79.133 49.577 79.052 49.298 79.052 48.92V32.18C79.052 31.802 79.133 31.532 79.295 31.37C79.475 31.19 79.754 31.1 80.132 31.1H89.609C89.897 31.1 90.104 31.208 90.23 31.424C90.356 31.64 90.419 31.982 90.419 32.45V33.287C90.419 33.755 90.356 34.097 90.23 34.313C90.104 34.529 89.897 34.637 89.609 34.637H83.21V38.552H88.88C89.168 38.552 89.375 38.66 89.501 38.876C89.627 39.092 89.69 39.434 89.69 39.902V40.739C89.69 41.207 89.627 41.549 89.501 41.765C89.375 41.981 89.168 42.089 88.88 42.089H83.21V46.463H89.636C89.924 46.463 90.131 46.571 90.257 46.787C90.383 47.003 90.446 47.345 90.446 47.813V48.65C90.446 49.118 90.383 49.46 90.257 49.676C90.131 49.892 89.924 50 89.636 50H80.132ZM102.728 45.491C102.26 45.491 101.9 45.32 101.648 44.978L98.3273 39.038C98.0933 38.642 97.8953 38.291 97.7333 37.985L97.6253 38.012V39.335V49.19C97.6253 49.766 97.0853 50.054 96.0053 50.054H95.2223C94.1423 50.054 93.6023 49.766 93.6023 49.19V31.91C93.6023 31.334 94.1423 31.046 95.2223 31.046H96.6533C97.5173 31.046 98.0843 31.289 98.3543 31.775L102.836 39.767L103.106 40.226L103.349 39.767L107.912 31.775C108.182 31.289 108.749 31.046 109.613 31.046H111.017C112.097 31.046 112.637 31.334 112.637 31.91V49.19C112.637 49.766 112.097 50.054 111.017 50.054H110.234C109.154 50.054 108.614 49.766 108.614 49.19V39.335V38.012L108.506 37.985C108.344 38.291 108.146 38.642 107.912 39.038L104.591 44.978C104.339 45.32 103.979 45.491 103.511 45.491H102.728ZM117.977 50.054C116.897 50.054 116.357 49.766 116.357 49.19V32.18C116.357 31.802 116.438 31.532 116.6 31.37C116.78 31.19 117.059 31.1 117.437 31.1H123.107C124.799 31.1 126.293 31.514 127.589 32.342C128.885 33.152 129.533 34.709 129.533 37.013C129.533 38.597 129.155 39.83 128.399 40.712C127.643 41.576 126.797 42.161 125.861 42.467C124.925 42.773 124.097 42.926 123.377 42.926H120.515V49.19C120.515 49.766 119.975 50.054 118.895 50.054H117.977ZM122.918 39.362C123.566 39.362 124.115 39.191 124.565 38.849C125.033 38.507 125.267 37.895 125.267 37.013C125.267 36.131 125.033 35.519 124.565 35.177C124.115 34.817 123.566 34.637 122.918 34.637H120.515V39.362H122.918ZM139.505 50.216C137.021 50.216 135.095 49.649 133.727 48.515C132.359 47.363 131.675 45.752 131.675 43.682V31.91C131.675 31.334 132.215 31.046 133.295 31.046H134.213C135.293 31.046 135.833 31.334 135.833 31.91V43.412C135.833 44.366 136.175 45.149 136.859 45.761C137.543 46.373 138.425 46.679 139.505 46.679C140.585 46.679 141.467 46.373 142.151 45.761C142.853 45.149 143.204 44.366 143.204 43.412V31.91C143.204 31.334 143.744 31.046 144.824 31.046H145.715C146.795 31.046 147.335 31.334 147.335 31.91V43.682C147.335 45.752 146.651 47.363 145.283 48.515C143.915 49.649 141.989 50.216 139.505 50.216ZM152.246 50C151.868 50 151.589 49.919 151.409 49.757C151.247 49.577 151.166 49.298 151.166 48.92V31.91C151.166 31.334 151.706 31.046 152.786 31.046H153.704C154.784 31.046 155.324 31.334 155.324 31.91V46.463H161.156C161.444 46.463 161.651 46.571 161.777 46.787C161.903 47.003 161.966 47.345 161.966 47.813V48.65C161.966 49.118 161.903 49.46 161.777 49.676C161.651 49.892 161.444 50 161.156 50H152.246ZM169.131 50.216C167.853 50.216 166.737 50.09 165.783 49.838C164.829 49.586 164.082 49.262 163.542 48.866C163.038 48.524 162.786 48.182 162.786 47.84C162.786 47.57 162.885 47.246 163.083 46.868C163.281 46.49 163.515 46.157 163.785 45.869C164.055 45.581 164.28 45.437 164.46 45.437C164.568 45.437 164.82 45.545 165.216 45.761C165.792 46.049 166.314 46.274 166.782 46.436C167.25 46.598 167.799 46.679 168.429 46.679C169.131 46.679 169.725 46.544 170.211 46.274C170.715 45.986 170.967 45.491 170.967 44.789C170.967 44.213 170.733 43.763 170.265 43.439C169.815 43.097 169.077 42.719 168.051 42.305L166.809 41.765C165.675 41.225 164.784 40.559 164.136 39.767C163.488 38.957 163.164 37.814 163.164 36.338C163.164 35.114 163.461 34.097 164.055 33.287C164.667 32.459 165.459 31.856 166.431 31.478C167.403 31.082 168.447 30.884 169.563 30.884C170.481 30.884 171.309 30.983 172.047 31.181C172.803 31.361 173.397 31.604 173.829 31.91C174.225 32.198 174.423 32.486 174.423 32.774C174.423 33.026 174.342 33.341 174.18 33.719C174.018 34.097 173.82 34.43 173.586 34.718C173.352 34.988 173.136 35.123 172.938 35.123C172.848 35.123 172.695 35.078 172.479 34.988C172.281 34.898 172.11 34.826 171.966 34.772C171.318 34.556 170.643 34.448 169.941 34.448C169.005 34.448 168.348 34.601 167.97 34.907C167.61 35.213 167.43 35.564 167.43 35.96C167.43 36.428 167.556 36.815 167.808 37.121C168.06 37.427 168.366 37.679 168.726 37.877C169.086 38.057 169.617 38.3 170.319 38.606C171.345 39.038 172.182 39.452 172.83 39.848C173.478 40.226 174.036 40.784 174.504 41.522C174.99 42.242 175.233 43.169 175.233 44.303C175.233 45.689 174.936 46.823 174.342 47.705C173.766 48.587 173.019 49.226 172.101 49.622C171.183 50.018 170.193 50.216 169.131 50.216ZM182.523 50.216C181.731 50.216 180.876 50.144 179.958 50C179.058 49.856 178.284 49.622 177.636 49.298C176.988 48.956 176.664 48.524 176.664 48.002C176.664 47.822 176.736 47.57 176.88 47.246C177.024 46.904 177.195 46.607 177.393 46.355C177.591 46.085 177.789 45.95 177.987 45.95C178.095 45.95 178.329 46.04 178.689 46.22C179.211 46.472 179.715 46.679 180.201 46.841C180.687 46.985 181.254 47.057 181.902 47.057C182.712 47.057 183.36 46.832 183.846 46.382C184.332 45.914 184.575 45.266 184.575 44.438C184.575 43.52 184.323 42.836 183.819 42.386C183.315 41.918 182.514 41.684 181.416 41.684H180.66C180.372 41.684 180.165 41.576 180.039 41.36C179.913 41.144 179.85 40.802 179.85 40.334V39.848C179.85 39.38 179.913 39.038 180.039 38.822C180.165 38.606 180.372 38.498 180.66 38.498H181.173C182.037 38.498 182.712 38.3 183.198 37.904C183.702 37.49 183.954 36.941 183.954 36.257C183.954 35.573 183.765 35.042 183.387 34.664C183.027 34.268 182.487 34.07 181.767 34.07C181.173 34.07 180.678 34.133 180.282 34.259C179.886 34.367 179.508 34.511 179.148 34.691C178.896 34.835 178.707 34.907 178.581 34.907C178.311 34.907 178.014 34.664 177.69 34.178C177.384 33.674 177.231 33.233 177.231 32.855C177.231 32.225 177.735 31.739 178.743 31.397C179.769 31.055 181.011 30.884 182.469 30.884C184.161 30.884 185.502 31.316 186.492 32.18C187.5 33.026 188.004 34.169 188.004 35.609C188.004 36.527 187.779 37.337 187.329 38.039C186.879 38.723 186.267 39.227 185.493 39.551V39.659C186.537 40.055 187.32 40.676 187.842 41.522C188.364 42.368 188.625 43.358 188.625 44.492C188.625 46.256 188.058 47.651 186.924 48.677C185.808 49.703 184.341 50.216 182.523 50.216Z" fill="#231B53"/>
<defs>
<clipPath id="clip0_365_2239">
<rect width="59" height="61" fill="white" transform="translate(9 9)"/>
</clipPath>
</defs>
</svg>
